<?xml version="1.0" encoding="UTF-8" standalone="no"?>
<!DOCTYPE svg PUBLIC "-//W3C//DTD SVG 1.1//EN" "http://www.w3.org/Graphics/SVG/1.1/DTD/svg11.dtd">
<svg width="100%" height="100%" viewBox="0 0 1950 400" version="1.1" xmlns="http://www.w3.org/2000/svg" xmlns:xlink="http://www.w3.org/1999/xlink" xml:space="preserve" xmlns:serif="http://www.serif.com/" style="fill-rule:evenodd;clip-rule:evenodd;stroke-linejoin:round;stroke-miterlimit:2;">
    <g transform="matrix(1,0,0,1,-1180,-2100)">
        <g id="DANK_OP_H_inverted" transform="matrix(1.80556,0,0,0.37037,1180,2100)">
            <rect x="0" y="0" width="1080" height="1080" style="fill:none;"/>
            <clipPath id="_clip1">
                <rect x="0" y="0" width="1080" height="1080"/>
            </clipPath>
            <g clip-path="url(#_clip1)">
                <g transform="matrix(0.515267,0,0,2.7,-2139.39,-305.1)">
                    <path d="M6248,153C6248,130.924 6228.73,113 6205.01,113L4194.99,113C4171.27,113 4152,130.924 4152,153L4152,473.004C4152,495.081 4171.27,513.005 4194.99,513.005L6205.01,513.005C6228.73,513.005 6248,495.081 6248,473.004L6248,153Z" style="fill:rgb(255,90,62);"/>
                    <clipPath id="_clip2">
                        <path d="M6248,153C6248,130.924 6228.73,113 6205.01,113L4194.99,113C4171.27,113 4152,130.924 4152,153L4152,473.004C4152,495.081 4171.27,513.005 4194.99,513.005L6205.01,513.005C6228.73,513.005 6248,495.081 6248,473.004L6248,153Z"/>
                    </clipPath>
                    <g clip-path="url(#_clip2)">
                        <g transform="matrix(1.96204,0,0,1,-3994.39,0)">
                            <rect x="4152" y="113" width="527.968" height="399" style="fill:white;"/>
                        </g>
                        <g id="DANK---Dover-Art--N--Knowledge" serif:id="DANK - Dover Art &apos;N&apos; Knowledge" transform="matrix(0.817239,0,0,0.760313,4228.64,184.3)">
                            <g transform="matrix(1.00499,0,0,1.00499,2.27374e-13,-448.59)">
                                <path d="M209.848,778.027C192.754,781.505 173.107,783.232 150.918,783.232L0,783.232L0,446.362L150.918,446.362C211.644,446.362 253.326,459.298 275.964,485.17C279.452,489.156 282.672,493.555 285.575,498.392L209.848,778.027ZM152.535,532.601L107.798,532.601L107.798,696.993L152.535,696.993C167.267,696.993 177.957,695.286 184.604,691.873C191.252,688.459 194.576,680.644 194.576,668.427L194.576,561.167C194.576,548.95 191.252,541.135 184.604,537.721C177.957,534.308 167.267,532.601 152.535,532.601Z" style="fill:rgb(255,90,62);"/>
                            </g>
                            <g transform="matrix(541.681,0,0,541.681,463.567,338.55)">
                                <path d="M0.05,-0.474L0.05,-0.625L0.238,-0.625L0.391,-0.403C0.396,-0.396 0.4,-0.38 0.401,-0.355L0.405,-0.355L0.405,-0.625L0.605,-0.625L0.605,0L0.417,0L0.264,-0.222C0.259,-0.229 0.255,-0.245 0.254,-0.27L0.25,-0.27L0.25,0L0.178,0L0.05,-0.474Z" style="fill:rgb(255,90,62);"/>
                            </g>
                            <g transform="matrix(6.79084,0,0,5.38904,-1419.08,-1515.28)">
                                <path d="M274.61,344L256.672,344L259.061,334.049L272.222,334.049L274.61,344Z" style="fill:rgb(255,90,62);"/>
                            </g>
                            <g transform="matrix(541.681,0,0,541.681,219.908,338.55)">
                                <path d="M0.299,-0.433L0.258,-0.258L0.35,-0.258L0.31,-0.433L0.299,-0.433Z" style="fill:rgb(255,90,62);"/>
                            </g>
                            <g transform="matrix(5.38904,0,0,5.38904,-1045.61,-1515.28)">
                                <path d="M360.961,316.66L361.363,316.66C361.497,318.67 361.832,320.278 362.368,321.485L373.239,344L360.961,344L360.961,316.66Z" style="fill:rgb(255,90,62);"/>
                            </g>
                            <g transform="matrix(5.38904,0,0,5.38904,-1045.61,-1515.28)">
                                <path d="M394.433,343.012L378.853,312.036L394.425,281.178L394.433,281.178L394.433,343.012Z" style="fill:rgb(255,90,62);"/>
                            </g>
                            <g transform="matrix(5.38904,0,0,5.38904,-1045.61,-1515.28)">
                                <path d="M372.721,281.178L362.368,301.985C361.832,303.191 361.497,304.799 361.363,306.809L360.961,306.809L360.961,281.178L372.721,281.178Z" style="fill:rgb(255,90,62);"/>
                            </g>
                        </g>
                        <g transform="matrix(2.14551,0,0,0.380929,4143.8,111.001)">
                            <g transform="matrix(0.56884,0,0,2.98072,-417.688,-593.435)">
                                <text x="1638.53px" y="372.222px" style="font-family:'Gotham-Light', 'Gotham';font-weight:300;font-size:153.947px;fill:white;">OFFICIAL</text>
                            </g>
                            <g transform="matrix(0.561954,0,0,2.94464,-406.326,-227.907)">
                                <text x="1638.53px" y="372.222px" style="font-family:'Gotham-Light', 'Gotham';font-weight:300;font-size:153.947px;fill:white;">P<tspan x="1730.59px 1852.2px " y="372.222px 372.222px ">AR</tspan>NTER</text>
                            </g>
                        </g>
                    </g>
                    <path d="M6248,153C6248,130.924 6228.73,113 6205.01,113L4194.99,113C4171.27,113 4152,130.924 4152,153L4152,473.004C4152,495.081 4171.27,513.005 4194.99,513.005L6205.01,513.005C6228.73,513.005 6248,495.081 6248,473.004L6248,153ZM6226.5,153L6226.5,473.004C6226.5,484.043 6216.87,493.005 6205.01,493.005C6205.01,493.005 4194.99,493.005 4194.99,493.005C4183.13,493.005 4173.5,484.043 4173.5,473.004C4173.5,473.004 4173.5,153 4173.5,153C4173.5,141.962 4183.13,133 4194.99,133C4194.99,133 6205.01,133 6205.01,133C6216.87,133 6226.5,141.962 6226.5,153Z" style="fill:white;"/>
                </g>
            </g>
        </g>
    </g>
</svg>
